<?xml version="1.0" standalone="yes"?>

<svg version="1.1" viewBox="0.0 0.0 960.0 720.0" fill="none" stroke="none" stroke-linecap="square" stroke-miterlimit="10" xmlns="http://www.w3.org/2000/svg" xmlns:xlink="http://www.w3.org/1999/xlink"><clipPath id="p3.0"><path d="m0 0l960.0 0l0 720.0l-960.0 0l0 -720.0z" clip-rule="nonzero"></path></clipPath><g clip-path="url(#p3.0)"><path fill="#ffffff" d="m0 0l960.0 0l0 720.0l-960.0 0z" fill-rule="nonzero"></path><path fill="#d1282e" d="m944.99994 508.8l15.000061 0l0 211.20001l-15.000061 0z" fill-rule="nonzero"></path><path fill="#000000" d="m944.99994 0l15.000061 0l0 508.80002l-15.000061 0z" fill-rule="nonzero"></path><path fill="#000000" fill-opacity="0.0" d="m48.0 24.0l816.0 0l0 479.9999l-816.0 0z" fill-rule="nonzero"></path><path fill="#000000" d="m84.359375 105.6087l-21.984375 -3.9375q2.734375 -10.515625 10.53125 -16.109375q7.796875 -5.59375 22.078125 -5.59375q16.40625 0 23.71875 6.109375q7.3125 6.109375 7.3125 15.359375q0 5.4375 -2.96875 9.84375q-2.96875 4.390625 -8.96875 7.703125q4.84375 1.203125 7.421875 2.796875q4.171875 2.5625 6.484375 6.765625q2.3125 4.203125 2.3125 10.03125q0 7.3125 -3.828125 14.03125q-3.828125 6.703125 -11.03125 10.328125q-7.1875 3.625 -18.90625 3.625q-11.421875 0 -18.03125 -2.671875q-6.59375 -2.6875 -10.84375 -7.859375q-4.25 -5.171875 -6.546875 -13.0l23.25 -3.078125q1.375 7.015625 4.25 9.734375q2.890625 2.71875 7.359375 2.71875q4.671875 0 7.78125 -3.421875q3.125 -3.4375 3.125 -9.15625q0 -5.828125 -3.0 -9.015625q-3.0 -3.203125 -8.140625 -3.203125q-2.75 0 -7.546875 1.375l1.203125 -16.625q1.9375 0.28125 3.03125 0.28125q4.5625 0 7.625 -2.90625q3.0625 -2.921875 3.0625 -6.921875q0 -3.828125 -2.296875 -6.109375q-2.28125 -2.28125 -6.28125 -2.28125q-4.109375 0 -6.6875 2.484375q-2.5625 2.484375 -3.484375 8.703125zm59.803818 -24.21875l38.453125 0q11.375 0 18.359375 3.09375q7.0 3.078125 11.5625 8.84375q4.578125 5.765625 6.640625 13.421875q2.0625 7.65625 2.0625 16.234375q0 13.421875 -3.0625 20.828125q-3.0625 7.390625 -8.484375 12.390625q-5.421875 5.0 -11.65625 6.65625q-8.515625 2.28125 -15.421875 2.28125l-38.453125 0l0 -83.75zm25.890625 18.96875l0 45.75l6.34375 0q8.109375 0 11.53125 -1.796875q3.421875 -1.796875 5.359375 -6.28125q1.953125 -4.484375 1.953125 -14.53125q0 -13.3125 -4.34375 -18.21875q-4.34375 -4.921875 -14.390625 -4.921875l-6.453125 0z" fill-rule="nonzero"></path><path fill="#000000" d="m65.453125 222.38995l43.015625 0q14.0625 0 21.0625 6.6875q7.0 6.671875 7.0 19.015625q0 12.6875 -7.640625 19.828125q-7.625 7.140625 -23.28125 7.140625l-14.15625 0l0 31.078125l-26.0 0l0 -83.75zm26.0 35.703125l6.34375 0q7.484375 0 10.5 -2.59375q3.03125 -2.609375 3.03125 -6.65625q0 -3.953125 -2.625 -6.6875q-2.625 -2.75 -9.890625 -2.75l-7.359375 0l0 18.6875zm59.183746 48.046875l0 -83.75l43.140625 0q12.0 0 18.328125 2.0625q6.34375 2.046875 10.234375 7.625q3.890625 5.5625 3.890625 13.5625q0 6.96875 -2.984375 12.03125q-2.96875 5.046875 -8.15625 8.1875q-3.3125 2.0 -9.09375 3.3125q4.625 1.546875 6.75 3.09375q1.421875 1.03125 4.125 4.40625q2.71875 3.359375 3.640625 5.1875l12.515625 24.28125l-29.25 0l-13.828125 -25.59375q-2.625 -4.96875 -4.6875 -6.453125q-2.796875 -1.9375 -6.34375 -1.9375l-2.28125 0l0 33.984375l-26.0 0zm26.0 -49.8125l10.90625 0q1.78125 0 6.859375 -1.140625q2.578125 -0.515625 4.203125 -2.625q1.625 -2.125 1.625 -4.859375q0 -4.0625 -2.578125 -6.234375q-2.5625 -2.171875 -9.640625 -2.171875l-11.375 0l0 17.03125zm65.94908 -33.9375l25.937485 0l0 83.75l-25.937485 0l0 -83.75zm44.800064 0l24.171875 0l31.53125 46.328125l0 -46.328125l24.390625 0l0 83.75l-24.390625 0l-31.359375 -45.984375l0 45.984375l-24.34375 0l0 -83.75zm91.688385 0l78.671875 0l0 20.671875l-26.40625 0l0 63.078125l-25.875 0l0 -63.078125l-26.390625 0l0 -20.671875zm91.63687 0l25.9375 0l0 83.75l-25.9375 0l0 -83.75zm44.80008 0l24.171875 0l31.53125 46.328125l0 -46.328125l24.390625 0l0 83.75l-24.390625 0l-31.359375 -45.984375l0 45.984375l-24.34375 0l0 -83.75zm139.67273 53.421875l0 -17.4375l39.984375 0l0 35.71875q-11.46875 7.8125 -20.296875 10.640625q-8.828125 2.828125 -20.9375 2.828125q-14.921875 0 -24.328125 -5.078125q-9.390625 -5.078125 -14.5625 -15.125q-5.15625 -10.0625 -5.15625 -23.09375q0 -13.71875 5.65625 -23.859375q5.65625 -10.140625 16.5625 -15.390625q8.515625 -4.046875 22.90625 -4.046875q13.890625 0 20.765625 2.515625q6.890625 2.5 11.421875 7.796875q4.546875 5.28125 6.828125 13.390625l-24.953125 4.453125q-1.546875 -4.734375 -5.234375 -7.25q-3.6875 -2.515625 -9.390625 -2.515625q-8.515625 0 -13.578125 5.921875q-5.046875 5.90625 -5.046875 18.703125q0 13.59375 5.109375 19.421875q5.109375 5.828125 14.25 5.828125q4.34375 0 8.28125 -1.25q3.953125 -1.265625 9.03125 -4.296875l0 -7.875l-17.3125 0zm54.14148 -30.34375l24.859375 0l0 23.3125l-24.859375 0l0 -23.3125zm0 37.359375l24.859375 0l0 23.3125l-24.859375 0l0 -23.3125z" fill-rule="nonzero"></path><path fill="#000000" d="m65.90625 363.38995l38.453125 0q11.375 0 18.359375 3.09375q7.0 3.078125 11.5625 8.84375q4.578125 5.765625 6.640625 13.421875q2.0625 7.65625 2.0625 16.234375q0 13.421875 -3.0625 20.828125q-3.0625 7.390625 -8.484375 12.390625q-5.421875 5.0 -11.65625 6.65625q-8.515625 2.28125 -15.421875 2.28125l-38.453125 0l0 -83.75zm25.890625 18.96875l0 45.75l6.34375 0q8.109375 0 11.53125 -1.796875q3.421875 -1.796875 5.359375 -6.28125q1.953125 -4.484375 1.953125 -14.53125q0 -13.3125 -4.34375 -18.21875q-4.34375 -4.921875 -14.390625 -4.921875l-6.453125 0zm116.55846 50.953125l-29.46875 0l-4.0625 13.828125l-26.453125 0l31.484375 -83.75l28.21875 0l31.484375 83.75l-27.078125 0l-4.125 -13.828125zm-5.421875 -18.109375l-9.25 -30.109375l-9.203125 30.109375l18.453125 0zm36.69908 -51.8125l28.734375 0l16.921875 28.28125l16.90625 -28.28125l28.5625 0l-32.5625 48.671875l0 35.078125l-25.9375 0l0 -35.078125l-32.625 -48.671875zm187.81192 -1.421875l0 85.171875l-23.546875 0l0 -55.8125q-5.703125 4.34375 -11.046875 7.03125q-5.34375 2.671875 -13.390625 5.140625l0 -19.09375q11.875 -3.828125 18.4375 -9.1875q6.578125 -5.375 10.296875 -13.25l19.25 0z" fill-rule="nonzero"></path><path fill="#000000" fill-opacity="0.0" d="m48.0 504.0l720.0 0l0 96.0l-720.0 0z" fill-rule="nonzero"></path><path fill="#d1282e" d="m67.015625 514.27185l5.984375 0l0 10.515625q0 3.296875 -0.59375 5.03125q-0.578125 1.71875 -2.359375 2.921875q-1.765625 1.203125 -4.53125 1.203125q-2.921875 0 -4.53125 -0.78125q-1.609375 -0.796875 -2.484375 -2.3125q-0.875 -1.53125 -1.03125 -3.78125l5.703125 -0.765625q0.015625 1.265625 0.21875 1.890625q0.21875 0.625 0.71875 1.0q0.34375 0.25 0.96875 0.25q1.0 0 1.46875 -0.734375q0.46875 -0.75 0.46875 -2.515625l0 -11.921875zm22.326385 0l5.953125 0l0 11.515625q0 1.71875 -0.53125 3.25q-0.53125 1.515625 -1.671875 2.65625q-1.140625 1.140625 -2.40625 1.609375q-1.734375 0.640625 -4.171875 0.640625q-1.40625 0 -3.078125 -0.203125q-1.671875 -0.1875 -2.796875 -0.765625q-1.109375 -0.59375 -2.046875 -1.671875q-0.921875 -1.09375 -1.265625 -2.234375q-0.5625 -1.84375 -0.5625 -3.28125l0 -11.515625l5.96875 0l0 11.796875q0 1.578125 0.875 2.46875q0.875 0.890625 2.4375 0.890625q1.53125 0 2.40625 -0.875q0.890625 -0.875 0.890625 -2.484375l0 -11.796875zm9.6579895 0l5.578125 0l7.28125 10.6875l0 -10.6875l5.625 0l0 19.328125l-5.625 0l-7.234375 -10.609375l0 10.609375l-5.625 0l0 -19.328125zm22.15799 0l16.0 0l0 4.125l-10.015625 0l0 3.078125l9.296875 0l0 3.9375l-9.296875 0l0 3.8125l10.3125 0l0 4.375l-16.296875 0l0 -19.328125zm30.515045 8.9375q-1.265625 -0.671875 -1.859375 -1.5q-0.78125 -1.140625 -0.78125 -2.609375q0 -2.421875 2.28125 -3.96875q1.78125 -1.1875 4.703125 -1.1875q3.875 0 5.71875 1.484375q1.859375 1.46875 1.859375 3.703125q0 1.3125 -0.734375 2.4375q-0.546875 0.84375 -1.734375 1.640625q1.5625 0.75 2.328125 2.0q0.78125 1.234375 0.78125 2.734375q0 1.453125 -0.671875 2.71875q-0.671875 1.25 -1.640625 1.9375q-0.96875 0.6875 -2.40625 1.0q-1.4375 0.328125 -3.078125 0.328125q-3.078125 0 -4.703125 -0.71875q-1.609375 -0.734375 -2.453125 -2.140625q-0.84375 -1.40625 -0.84375 -3.15625q0 -1.703125 0.78125 -2.875q0.796875 -1.1875 2.453125 -1.828125zm2.40625 -3.796875q0 1.0 0.625 1.625q0.625 0.609375 1.671875 0.609375q0.921875 0 1.515625 -0.609375q0.59375 -0.609375 0.59375 -1.578125q0 -1.0 -0.625 -1.625q-0.609375 -0.625 -1.578125 -0.625q-0.984375 0 -1.59375 0.625q-0.609375 0.609375 -0.609375 1.578125zm-0.296875 8.328125q0 1.265625 0.78125 2.078125q0.78125 0.8125 1.78125 0.8125q0.96875 0 1.734375 -0.8125q0.765625 -0.828125 0.765625 -2.09375q0 -1.28125 -0.78125 -2.09375q-0.765625 -0.828125 -1.78125 -0.828125q-1.0 0 -1.75 0.796875q-0.75 0.78125 -0.75 2.140625zm12.9670105 0.53125l5.734375 0l0 4.421875q0 2.4375 -1.015625 3.84375q-1.015625 1.40625 -3.46875 2.5l-1.25 -2.359375q1.53125 -0.703125 2.09375 -1.40625q0.578125 -0.703125 0.640625 -1.671875l-2.734375 0l0 -5.328125zm32.953995 5.328125l-16.109375 0q0.265625 -2.390625 1.671875 -4.484375q1.40625 -2.109375 5.265625 -4.96875q2.359375 -1.75 3.015625 -2.65625q0.671875 -0.921875 0.671875 -1.734375q0 -0.875 -0.65625 -1.5q-0.65625 -0.640625 -1.640625 -0.640625q-1.03125 0 -1.6875 0.65625q-0.65625 0.640625 -0.875 2.28125l-5.375 -0.4375q0.3125 -2.265625 1.15625 -3.53125q0.84375 -1.28125 2.375 -1.953125q1.546875 -0.6875 4.265625 -0.6875q2.828125 0 4.40625 0.65625q1.578125 0.640625 2.46875 1.984375q0.90625 1.328125 0.90625 2.984375q0 1.765625 -1.03125 3.375q-1.03125 1.609375 -3.765625 3.53125q-1.625 1.125 -2.171875 1.578125q-0.546875 0.4375 -1.28125 1.171875l8.390625 0l0 4.375zm2.0607605 -9.75q0 -5.5 1.984375 -7.703125q1.984375 -2.203125 6.046875 -2.203125q1.953125 0 3.203125 0.484375q1.25 0.484375 2.03125 1.25q0.796875 0.765625 1.25 1.625q0.453125 0.84375 0.734375 1.984375q0.546875 2.15625 0.546875 4.5q0 5.265625 -1.78125 7.703125q-1.78125 2.4375 -6.140625 2.4375q-2.4375 0 -3.9375 -0.765625q-1.5 -0.78125 -2.46875 -2.296875q-0.6875 -1.0625 -1.078125 -2.90625q-0.390625 -1.859375 -0.390625 -4.109375zm5.328125 0.015625q0 3.703125 0.640625 5.0625q0.65625 1.34375 1.90625 1.34375q0.8125 0 1.40625 -0.578125q0.609375 -0.578125 0.890625 -1.8125q0.28125 -1.25 0.28125 -3.859375q0 -3.859375 -0.65625 -5.171875q-0.65625 -1.328125 -1.953125 -1.328125q-1.328125 0 -1.921875 1.359375q-0.59375 1.34375 -0.59375 4.984375zm24.62326 -9.921875l0 19.65625l-5.4375 0l0 -12.875q-1.3125 1.0 -2.546875 1.625q-1.234375 0.609375 -3.09375 1.171875l0 -4.390625q2.734375 -0.890625 4.25 -2.125q1.515625 -1.25 2.375 -3.0625l4.453125 0zm7.7795105 0.328125l12.75 0l0 4.28125l-8.640625 0l-0.453125 2.90625q0.890625 -0.421875 1.765625 -0.625q0.875 -0.21875 1.734375 -0.21875q2.90625 0 4.703125 1.75q1.8125 1.75 1.8125 4.421875q0 1.875 -0.9375 3.609375q-0.921875 1.71875 -2.625 2.625q-1.703125 0.90625 -4.375 0.90625q-1.90625 0 -3.28125 -0.359375q-1.359375 -0.359375 -2.3125 -1.078125q-0.953125 -0.71875 -1.546875 -1.625q-0.59375 -0.921875 -0.984375 -2.28125l5.421875 -0.59375q0.203125 1.3125 0.921875 2.0q0.734375 0.671875 1.734375 0.671875q1.109375 0 1.84375 -0.84375q0.734375 -0.859375 0.734375 -2.546875q0 -1.734375 -0.734375 -2.53125q-0.734375 -0.796875 -1.96875 -0.796875q-0.78125 0 -1.5 0.375q-0.546875 0.28125 -1.1875 1.0l-4.578125 -0.65625l1.703125 -10.390625z" fill-rule="nonzero"></path><path fill="#d1282e" d="m59.0625 578.93335l0 -19.328125l9.953125 0q2.765625 0 4.21875 0.484375q1.46875 0.46875 2.359375 1.75q0.90625 1.28125 0.90625 3.125q0 1.609375 -0.6875 2.78125q-0.6875 1.171875 -1.890625 1.890625q-0.765625 0.46875 -2.09375 0.765625q1.078125 0.359375 1.5625 0.71875q0.328125 0.234375 0.953125 1.015625q0.625 0.765625 0.84375 1.1875l2.875 5.609375l-6.75 0l-3.1875 -5.90625q-0.609375 -1.140625 -1.078125 -1.484375q-0.640625 -0.453125 -1.46875 -0.453125l-0.515625 0l0 7.84375l-6.0 0zm6.0 -11.5l2.515625 0q0.40625 0 1.578125 -0.265625q0.59375 -0.109375 0.96875 -0.59375q0.375 -0.5 0.375 -1.125q0 -0.9375 -0.59375 -1.4375q-0.59375 -0.5 -2.234375 -0.5l-2.609375 0l0 3.921875zm27.234085 -7.828125l5.953125 0l0 11.515625q0 1.71875 -0.53125 3.25q-0.53125 1.515625 -1.671875 2.65625q-1.140625 1.140625 -2.40625 1.609375q-1.734375 0.640625 -4.171875 0.640625q-1.40625 0 -3.078125 -0.203125q-1.671875 -0.1875 -2.796875 -0.765625q-1.109375 -0.59375 -2.046875 -1.671875q-0.921875 -1.09375 -1.265625 -2.234375q-0.5625 -1.84375 -0.5625 -3.28125l0 -11.515625l5.96875 0l0 11.796875q0 1.578125 0.875 2.46875q0.875 0.890625 2.4375 0.890625q1.53125 0 2.40625 -0.875q0.890625 -0.875 0.890625 -2.484375l0 -11.796875zm8.2673645 0l18.15625 0l0 4.765625l-6.09375 0l0 14.5625l-5.984375 0l0 -14.5625l-6.078125 0l0 -4.765625zm30.31279 12.328125l0 -4.015625l9.234375 0l0 8.234375q-2.65625 1.8125 -4.6875 2.46875q-2.03125 0.640625 -4.828125 0.640625q-3.4375 0 -5.609375 -1.171875q-2.171875 -1.171875 -3.375 -3.484375q-1.1875 -2.328125 -1.1875 -5.328125q0 -3.171875 1.296875 -5.515625q1.3125 -2.34375 3.84375 -3.546875q1.953125 -0.9375 5.28125 -0.9375q3.203125 0 4.78125 0.578125q1.59375 0.578125 2.640625 1.796875q1.046875 1.21875 1.578125 3.09375l-5.765625 1.03125q-0.34375 -1.09375 -1.203125 -1.671875q-0.84375 -0.578125 -2.171875 -0.578125q-1.953125 0 -3.125 1.359375q-1.171875 1.359375 -1.171875 4.3125q0 3.140625 1.171875 4.484375q1.1875 1.34375 3.296875 1.34375q1.015625 0 1.921875 -0.28125q0.90625 -0.296875 2.078125 -1.0l0 -1.8125l-4.0 0zm12.4861145 -12.328125l16.0 0l0 4.125l-10.015625 0l0 3.078125l9.296875 0l0 3.9375l-9.296875 0l0 3.8125l10.3125 0l0 4.375l-16.296875 0l0 -19.328125zm19.34404 19.328125l0 -19.328125l9.953125 0q2.765625 0 4.21875 0.484375q1.46875 0.46875 2.359375 1.75q0.90625 1.28125 0.90625 3.125q0 1.609375 -0.6875 2.78125q-0.6875 1.171875 -1.890625 1.890625q-0.765625 0.46875 -2.09375 0.765625q1.078125 0.359375 1.5625 0.71875q0.328125 0.234375 0.953125 1.015625q0.625 0.765625 0.84375 1.1875l2.875 5.609375l-6.75 0l-3.1875 -5.90625q-0.609375 -1.140625 -1.078125 -1.484375q-0.640625 -0.453125 -1.46875 -0.453125l-0.515625 0l0 7.84375l-6.0 0zm6.0 -11.5l2.515625 0q0.40625 0 1.578125 -0.265625q0.59375 -0.109375 0.96875 -0.59375q0.375 -0.5 0.375 -1.125q0 -0.9375 -0.59375 -1.4375q-0.59375 -0.5 -2.234375 -0.5l-2.609375 0l0 3.921875zm13.609085 5.109375l5.6875 -0.359375q0.171875 1.390625 0.75 2.109375q0.921875 1.171875 2.625 1.171875q1.28125 0 1.96875 -0.59375q0.703125 -0.609375 0.703125 -1.390625q0 -0.75 -0.65625 -1.34375q-0.671875 -0.59375 -3.0625 -1.125q-3.9375 -0.890625 -5.609375 -2.34375q-1.6875 -1.46875 -1.6875 -3.734375q0 -1.484375 0.859375 -2.8125q0.875 -1.328125 2.609375 -2.078125q1.734375 -0.765625 4.75 -0.765625q3.703125 0 5.640625 1.375q1.953125 1.375 2.328125 4.390625l-5.640625 0.328125q-0.21875 -1.3125 -0.9375 -1.90625q-0.71875 -0.59375 -1.984375 -0.59375q-1.046875 0 -1.578125 0.453125q-0.515625 0.4375 -0.515625 1.0625q0 0.46875 0.4375 0.828125q0.421875 0.390625 2.0 0.71875q3.921875 0.84375 5.609375 1.71875q1.6875 0.859375 2.453125 2.140625q0.78125 1.265625 0.78125 2.859375q0 1.84375 -1.03125 3.421875q-1.03125 1.5625 -2.875 2.375q-1.84375 0.8125 -4.640625 0.8125q-4.9375 0 -6.84375 -1.890625q-1.890625 -1.90625 -2.140625 -4.828125zm29.108795 -12.9375l7.859375 0l3.03125 11.765625l3.03125 -11.765625l7.828125 0l0 19.328125l-4.875 0l0 -14.734375l-3.796875 14.734375l-4.40625 0l-3.78125 -14.734375l0 14.734375l-4.890625 0l0 -19.328125zm37.12819 16.140625l-6.8125 0l-0.9375 3.1875l-6.09375 0l7.265625 -19.328125l6.5 0l7.265625 19.328125l-6.25 0l-0.9375 -3.1875zm-1.265625 -4.1875l-2.125 -6.9375l-2.125 6.9375l4.25 0zm10.12471 -11.953125l5.96875 0l0 7.296875l6.265625 -7.296875l7.9375 0l-7.03125 7.296875l7.34375 12.03125l-7.34375 0l-4.078125 -7.953125l-3.09375 3.234375l0 4.71875l-5.96875 0l0 -19.328125zm22.173615 0l16.0 0l0 4.125l-10.015625 0l0 3.078125l9.296875 0l0 3.9375l-9.296875 0l0 3.8125l10.3125 0l0 4.375l-16.296875 0l0 -19.328125zm19.344025 19.328125l0 -19.328125l9.953125 0q2.765625 0 4.21875 0.484375q1.46875 0.46875 2.359375 1.75q0.90625 1.28125 0.90625 3.125q0 1.609375 -0.6875 2.78125q-0.6875 1.171875 -1.890625 1.890625q-0.765625 0.46875 -2.09375 0.765625q1.078125 0.359375 1.5625 0.71875q0.328125 0.234375 0.953125 1.015625q0.625 0.765625 0.84375 1.1875l2.875 5.609375l-6.75 0l-3.1875 -5.90625q-0.609375 -1.140625 -1.078125 -1.484375q-0.640625 -0.453125 -1.46875 -0.453125l-0.515625 0l0 7.84375l-6.0 0zm6.0 -11.5l2.515625 0q0.40625 0 1.578125 -0.265625q0.59375 -0.109375 0.96875 -0.59375q0.375 -0.5 0.375 -1.125q0 -0.9375 -0.59375 -1.4375q-0.59375 -0.5 -2.234375 -0.5l-2.609375 0l0 3.921875zm13.6091 5.109375l5.6875 -0.359375q0.171875 1.390625 0.75 2.109375q0.921875 1.171875 2.625 1.171875q1.28125 0 1.96875 -0.59375q0.703125 -0.609375 0.703125 -1.390625q0 -0.75 -0.65625 -1.34375q-0.671875 -0.59375 -3.0625 -1.125q-3.9375 -0.890625 -5.609375 -2.34375q-1.6875 -1.46875 -1.6875 -3.734375q0 -1.484375 0.859375 -2.8125q0.875 -1.328125 2.609375 -2.078125q1.734375 -0.765625 4.75 -0.765625q3.703125 0 5.640625 1.375q1.953125 1.375 2.328125 4.390625l-5.640625 0.328125q-0.21875 -1.3125 -0.9375 -1.90625q-0.71875 -0.59375 -1.984375 -0.59375q-1.046875 0 -1.578125 0.453125q-0.515625 0.4375 -0.515625 1.0625q0 0.46875 0.4375 0.828125q0.421875 0.390625 2.0 0.71875q3.921875 0.84375 5.609375 1.71875q1.6875 0.859375 2.453125 2.140625q0.78125 1.265625 0.78125 2.859375q0 1.84375 -1.03125 3.421875q-1.03125 1.5625 -2.875 2.375q-1.84375 0.8125 -4.640625 0.8125q-4.9375 0 -6.84375 -1.890625q-1.890625 -1.90625 -2.140625 -4.828125zm20.2659 -12.9375l9.921875 0q3.25 0 4.859375 1.546875q1.625 1.53125 1.625 4.390625q0 2.921875 -1.765625 4.578125q-1.765625 1.640625 -5.375 1.640625l-3.265625 0l0 7.171875l-6.0 0l0 -19.328125zm6.0 8.234375l1.453125 0q1.734375 0 2.421875 -0.59375q0.703125 -0.59375 0.703125 -1.53125q0 -0.921875 -0.609375 -1.546875q-0.59375 -0.640625 -2.265625 -0.640625l-1.703125 0l0 4.3125zm25.17218 7.90625l-6.8125 0l-0.9375 3.1875l-6.09375 0l7.265625 -19.328125l6.5 0l7.265625 19.328125l-6.25 0l-0.9375 -3.1875zm-1.265625 -4.1875l-2.125 -6.9375l-2.125 6.9375l4.25 0zm22.968445 -0.515625l5.234375 1.578125q-0.53125 2.203125 -1.671875 3.6875q-1.125 1.46875 -2.8125 2.21875q-1.671875 0.75 -4.265625 0.75q-3.15625 0 -5.15625 -0.90625q-2.0 -0.921875 -3.453125 -3.234375q-1.4375 -2.3125 -1.4375 -5.90625q0 -4.796875 2.546875 -7.375q2.546875 -2.578125 7.21875 -2.578125q3.65625 0 5.734375 1.484375q2.09375 1.46875 3.109375 4.53125l-5.265625 1.171875q-0.28125 -0.890625 -0.578125 -1.296875q-0.5 -0.6875 -1.234375 -1.046875q-0.71875 -0.375 -1.625 -0.375q-2.03125 0 -3.109375 1.640625q-0.8125 1.203125 -0.8125 3.796875q0 3.21875 0.96875 4.421875q0.984375 1.1875 2.75 1.1875q1.71875 0 2.59375 -0.953125q0.875 -0.96875 1.265625 -2.796875zm7.85907 -11.4375l16.0 0l0 4.125l-10.015625 0l0 3.078125l9.296875 0l0 3.9375l-9.296875 0l0 3.8125l10.3125 0l0 4.375l-16.296875 0l0 -19.328125z" fill-rule="nonzero"></path></g></svg>

